<svg xmlns="http://www.w3.org/2000/svg" width="48" height="48" viewBox="0 0 48 48"><path fill="#c49951" d="M6 32 10 12l9 9 5-14 5 14 9-9 4 20Z"/><path fill="#926329" opacity=".5" d="m10 32 3.4-16 4 4-2 12Zm28 0-3.4-16-4 4 2 12Z"/><rect x="6" y="31" width="36" height="12" rx="3.5" fill="#714a20"/><rect x="9" y="34" width="30" height="3" rx="1.5" fill="#c49951" opacity=".85"/><circle cx="10" cy="11" r="3.2" fill="#e6c37a"/><circle cx="24" cy="6" r="3.2" fill="#e6c37a"/><circle cx="38" cy="11" r="3.2" fill="#e6c37a"/><path fill="none" stroke="#b68b46" stroke-width="1.4" d="M6 32 10 12l9 9 5-14 5 14 9-9 4 20Z"/></svg>
